<?xml version="1.0" encoding="utf-8"?>
<!-- Generator: Adobe Illustrator 21.0.0, SVG Export Plug-In . SVG Version: 6.00 Build 0)  -->
<svg version="1.1" id="Layer_1" xmlns="http://www.w3.org/2000/svg" xmlns:xlink="http://www.w3.org/1999/xlink" x="0px" y="0px"
	 viewBox="0 0 626 133" style="enable-background:new 0 0 626 133;" xml:space="preserve">
<style type="text/css">
	.st0{enable-background:new    ;}
	.st1{fill:#FFFFFF;}
	.st2{fill:#00A9E0;}
	.st3{fill:#0097C9;}
	.st4{fill:#98C73D;}
	.st5{fill:#88B236;}
</style>
<g id="Logo">
	<g class="st0">
		<path class="st1" d="M77.1,74.9c0,8-1.3,12-8.3,12H18.9c0,13.3,13.3,26.7,26.4,26.7c8.3,0,13.4-1.6,20.1-7.5
			c1.9-1.8,4.3-2.7,6.3-2.7c2.8,0,4.9,1.6,4.9,5c0,1.2-0.3,2.2-1,3c-6.9,8.7-17.1,13.1-30.2,13.1c-24.3,0-38.1-19.8-38.1-43.1
			C7.3,59.7,19.9,38,43,38C64.8,38,77.1,53.4,77.1,74.9z M66.1,76.2c0-15-8.7-27.3-22.7-27.3c-14.2,0-24.3,12.5-24.3,27.3H66.1z"/>
		<path class="st1" d="M154.7,13.2c0-3.8,1.9-5.8,5.6-5.8c3.5,0,5.3,1.9,5.3,5.8v106.7c0,3.2-1.8,4.9-5.3,4.9c-3.7,0-5.6-1.6-5.6-5
			v-9.9c-5,7.8-13.1,14.8-24.1,14.8c-23,0-34.2-20.7-34.2-42.2c0-21.2,11.4-44.3,34.2-44.3c8.9,0,19.8,4.6,24.1,13.7V13.2z
			 M155,81.8c0-20.8-11.8-32.9-23.9-32.9c-15.3,0-23.3,17-23.3,33.6c0,16.2,7.5,32.2,22.7,32.2C142.6,114.7,155,102.5,155,81.8z"/>
	</g>
	<g class="st0">
		<path class="st1" d="M231.6,111.4c-6,9-13.7,13.5-23.2,13.5c-16.3,0-26.1-10.2-26.1-23.9c0-9.8,6.2-18.6,18.4-26.4
			c-4.4-4.6-7.6-9.7-7.6-15.8c0-10.6,8-16.2,16-16.2c7.5,0,14.8,5.1,14.8,16c0,7.8-6.6,14-11.1,17.7l19.7,22.4l6.3-10.5
			c1.6-2.7,3.2-4.1,5.2-4.1c2.1,0,3.6,1.4,3.6,3.3c0,1.5-0.5,3.2-1.6,4.9l-8.5,12.8l9.7,10.7c0.6,0.7,0.9,1.6,0.9,2.5
			c0,2.4-1.9,4.5-4,4.5c-0.9,0-2.1-0.3-2.9-1L231.6,111.4z M204.9,80.5c-9.5,6.3-15.1,13.2-15.1,20.6c0,9.5,9.4,16.4,18.6,16.4
			c7.7,0,14-4,18.9-12L204.9,80.5z M216.4,57.6c0-5.7-3.9-8-7.6-8c-3.9,0-7.8,2.5-7.8,7.7c0,5.3,3.2,10,7,13.5
			C211.6,67.9,216.4,63.5,216.4,57.6z"/>
	</g>
	<g class="st0">
		<path class="st1" d="M268.4,6.9c4.1,0,7.4,3.2,7.4,7.4s-3.2,7.4-7.4,7.4c-4.1,0-7.4-3.2-7.4-7.4S264.3,6.9,268.4,6.9z M263.3,44.4
			c0-3.7,1.9-5.5,5.5-5.5c3.7,0,5.8,1.8,5.8,5.5v72.9c0,3.7-1.9,5.5-5.6,5.5s-5.6-1.8-5.6-5.5L263.3,44.4L263.3,44.4z"/>
		<path class="st1" d="M295,12.9c0-3.7,1.8-5.6,5.3-5.6c3.7,0,5.6,1.9,5.6,5.6v104.3c0,3.7-1.8,5.5-5.5,5.5s-5.5-1.8-5.5-5.5V12.9
			H295z"/>
		<path class="st1" d="M325.1,13.1c0-3.7,1.8-5.5,5.6-5.5c3.7,0,5.5,1.8,5.5,5.5v68.6l42-39.7c1-0.9,2.2-1.3,3.7-1.3
			c3,0,5.6,1.9,5.6,5c0,1.8-1.5,3.7-3.1,5.3l-23.6,22.1c8.9,12.5,18.4,25.7,27.1,38.2c1,1.8,2.4,4,2.4,6.2c0,3.7-2.4,5.5-5,5.5
			c-2.1,0-4.4-1.2-5.6-3.2l-27.4-39.1l-16.1,14.6v22.1c0,3.5-1.8,5.3-5.6,5.3c-3.7,0-5.5-1.8-5.5-5.3V13.1z"/>
	</g>
	<g id="Brackets">
		<g>
			<path class="st2" d="M456,48.1L488,18l3.1,23.4l-18.4,17.8L456,48.1z"/>
		</g>
		<g>
			<path class="st3" d="M425.6,54.9l66.1,44v23.4L425.6,82V54.9z"/>
		</g>
		<g id="Rectangle_7_copy">
			<path class="st4" d="M589.4,45.4l-36-25.8v23.7l20.9,15.4L589.4,45.4z"/>
		</g>
		<g id="Rectangle_6_copy">
			<path class="st5" d="M619.3,54.6l-67,44.6v23.7l67-40.9V54.6L619.3,54.6z"/>
		</g>
	</g>
</g>
</svg>
