<?xml version="1.0" encoding="utf-8"?>
<!-- Generator: Adobe Illustrator 25.2.2, SVG Export Plug-In . SVG Version: 6.00 Build 0)  -->
<svg version="1.1" id="Layer_1" xmlns="http://www.w3.org/2000/svg" xmlns:xlink="http://www.w3.org/1999/xlink" x="0px" y="0px"
	 viewBox="0 0 500 300" style="enable-background:new 0 0 500 300;" xml:space="preserve">
<style type="text/css">
	.st0{fill:#D2F7DD;}
	.st1{fill:#DEEAFF;}
	.st2{fill:#998C8C;stroke:#998C8C;stroke-width:0.8797;stroke-miterlimit:10;}
	.st3{fill:#0F4F92;}
	.st4{fill:#E5C7E2;}
</style>
<rect x="-0.2" y="150.9" class="st0" width="500" height="74.6"/>
<rect x="0.2" y="76.3" class="st1" width="500" height="74.6"/>
<rect x="0.6" y="0" class="st2" width="499.2" height="76"/>
<g transform="translate(0.000000,300.000000) scale(0.100000,-0.100000)">
	<path class="st3" d="M948.3,1989.1v-312.9v-312.9h1488.2h1488.2v312.9v312.9H2436.5H948.3z M3904.6,1676.2v-284H2441.5H978.5v284
		v284h1463.1h1463.1V1676.2z"/>
	<path class="st3" d="M1471.2,1810.9c0-47.2,1.4-82.4,5.7-82.5c7.8-0.2,3.6,172.8-0.3,179.6
		C1474.6,1910,1471.2,1858.1,1471.2,1810.9z"/>
	<path class="st3" d="M2845.8,1875.5c-22.1-23.1-21.1-30.8,3-30.8c15.1,0,20.1,6.7,20.1,24.1
		C2868.9,1897.6,2866.9,1897.6,2845.8,1875.5z"/>
	<path class="st3" d="M2929.2,1862v-36.6h-55.3c-30.2,0-55.3-3.9-55.3-8.7s11.1-22.1,25.1-37.5c24.1-27.9,25.1-33.7,25.1-165.6
		v-135.7l33.2,2.9l32.2,2.9l1,135.7c1,124.2,3,138.6,22.1,162.7c28.2,34.7,28.2,54.9-3,88.6l-24.1,27L2929.2,1862z M2929.2,1791.7
		c0-9.6-10.1-14.4-30.2-14.4s-30.2,4.8-30.2,14.4s10.1,14.4,30.2,14.4S2929.2,1801.3,2929.2,1791.7z M2919.2,1502.9
		c0-7.7-6-14.4-14.1-14.4c-17.1,0-28.2,13.5-19.1,23.1C2898.1,1523.1,2919.2,1517.3,2919.2,1502.9z"/>
	<path class="st3" d="M1089.1,1677.1c0-92.4,3-174.3,6-182.9c5-12.5,21.1-15.4,76.4-15.4c137.8,0,199.1,31.8,199.1,104.9
		c0,38.5-23.1,78-46.3,78c-8,0-14.1,4.8-14.1,9.6c0,5.8,5,9.6,10.1,9.6c16.1,0,38.2,55.8,32.2,81.8c-11.1,55.8-70.4,81.8-190,81.8
		h-73.4V1677.1z M1268.1,1775.3c7-6.7,12.1-23.1,12.1-38.5c0-30.8-24.1-46.2-73.4-46.2c-35.2,0-35.2,0-39.2,48.1l-3,48.1h46.3
		C1235.9,1786.9,1261,1782.1,1268.1,1775.3z M1281.1,1632.8c22.1-11.6,27.1-65.5,7-84.7c-7-6.7-37.2-11.6-67.4-11.6h-56.3v52.9v52.9
		h48.3C1239.9,1642.5,1270.1,1637.7,1281.1,1632.8z"/>
	<path class="st3" d="M2237.4,1665.6l3-182h30.2h30.2l3,65.5l3,64.5h52.3c70.4,0,117.6,24.1,141.8,71.2c17.1,34.7,18.1,41.4,5,76.1
		c-23.1,62.6-53.3,78-169.9,81.8l-100.6,3.9L2237.4,1665.6z M2424.4,1775.3c16.1-15.4,15.1-79.9,0-92.4c-7-4.8-37.2-11.6-66.4-12.5
		l-52.3-3.9v60.7v59.7h53.3C2388.3,1786.9,2417.4,1782.1,2424.4,1775.3z"/>
	<path class="st3" d="M1591.9,1782.1c0-27-4-33.7-20.1-33.7c-15.1,0-20.1-6.7-20.1-24.1c0-17.3,5-24.1,19.1-24.1
		c17.1,0,19.1-9.6,23.1-92.4c4-82.8,7-95.3,27.1-110.7c24.1-19.3,86.5-25,95.5-9.6c9,14.4-4,38.5-25.1,44.3
		c-17.1,5.8-19.1,15.4-19.1,87.6c0,74.1,2,80.9,20.1,80.9c15.1,0,20.1,6.7,20.1,24.1c0,17.3-5,24.1-20.1,24.1
		c-16.1,0-20.1,6.7-20.1,33.7c0,32.7-1,33.7-40.2,33.7C1592.9,1815.8,1591.9,1814.8,1591.9,1782.1z"/>
	<path class="st3" d="M1823.1,1740.7c-19.1-8.7-41.2-27.9-50.3-42.4c-13.1-24.1-13.1-29.8,0-52.9c9-15.4,31.2-31.8,55.3-39.5
		c94.5-31.8,96.5-32.7,93.5-53.9c-4-29.8-72.4-34.7-90.5-6.7c-17.1,26-68.4,27.9-68.4,2.9c0-52.9,113.6-88.6,179-55.8
		c86.5,43.3,58.3,122.3-52.3,149.2c-50.3,11.6-66.4,30.8-46.3,53.9c17.1,20.2,47.3,18.3,67.4-4.8c18.1-19.3,67.4-26,77.4-10.6
		c10.1,15.4-35.2,57.8-72.4,68.4C1866.4,1760.9,1864.4,1760.9,1823.1,1740.7z"/>
	<path class="st3" d="M2627.6,1740.7c-43.2-20.2-70.4-69.3-70.4-127.1c0-102,93.5-159.8,200.1-124.2c32.2,10.6,35.2,16.4,25.1,40.4
		c-4,10.6-13.1,12.5-42.2,5.8c-54.3-12.5-57-6.1-87.5,15.4c-40.2,37.5-32.2,43.3,60.3,43.3h85.5v41.4c0,56.8-29.2,99.2-77.4,111.7
		C2670.8,1760.9,2668.8,1760.9,2627.6,1740.7z M2716.1,1688.7c7-6.7,12.1-19.3,12.1-28.9c0-14.4-9-17.3-50.3-17.3
		c-54.3,0-58.3,3.9-34.2,36.6C2660.8,1702.2,2697,1707,2716.1,1688.7z"/>
	<path class="st3" d="M3060,1740.7c-88.5-41.4-95.5-197.4-11.1-245.5c65.4-36.6,171.9-1.9,171.9,56.8c0,31.8-35.2,30.8-66.4-1
		c-28.2-28.9-47.3-30.8-74.4-4.8c-25.1,24.1-27.1,101.1-4,132.9c21.1,28.9,65.4,25,79.4-4.8c7-15.4,18.1-22.1,37.2-22.1
		c35.2,0,39.2,7.7,22.1,46.2c-9.1,20.2-25.1,36.6-48.3,45.2C3120.3,1761.9,3103.2,1761.9,3060,1740.7z"/>
	<path class="st3" d="M3356.6,1751.3c-51.3-12.5-85.5-67.4-85.5-137.7c0-83.8,50.3-134.8,133.7-134.8c43.2,0,97.5,17.3,97.5,31.8
		c-1,27.9-16.1,35.6-50.3,26c-50.3-13.5-68.4-11.6-90.5,9.6c-40.2,38.5-28.2,48.1,66.4,48.1h87.5l-6,47.2c-6,51-20.1,78.9-47.3,95.3
		C3440,1750.3,3382.7,1758,3356.6,1751.3z M3432,1681.9c18.1-32.7,12.1-39.5-40.2-39.5c-54.3,0-58.3,3.9-34.2,36.6
		C3376.7,1705.1,3417.9,1707,3432,1681.9z"/>
	<path class="st3" d="M3623.1,1747.4c-41.2-16.4-60.3-38.5-60.3-73.2c0-40.4,24.1-60.7,93.5-79.9c44.2-13.5,52.3-18.3,52.3-38.5
		c0-21.2-5-24.1-37.2-27c-29.2-1.9-39.2,1-48.3,16.4c-11.1,21.2-70.4,28.9-70.4,9.6c0-45.2,63.3-79.9,132.7-74.1
		c90.5,8.7,129.7,78,72.4,128c-15.1,13.5-32.2,24.1-38.2,24.1s-28.2,4.8-48.3,10.6c-30.2,7.7-38.2,14.4-38.2,32.7
		c0,14.4,7,25,20.1,28.9c21.1,6.7,60.3-9.6,60.3-24.1c0-5.8,16.1-9.6,35.2-9.6c42.2,0,45.2,16.4,10.1,50.1
		C3723.6,1755.1,3670.3,1765.7,3623.1,1747.4z"/>
	<path class="st3" d="M1443,1683.9c0-15.4-5-53.9-10.1-87.6c-12.1-68.4-4-103,27.1-112.6c24.1-6.7,56.3,7.7,65.4,29.8
		c4,9.6,1,50.1-5,91.5c-6,41.4-9,82.8-5,90.5c4,11.6-3,14.4-34.2,14.4C1445.1,1709.9,1442,1707.9,1443,1683.9z M1468.2,1598.2
		c-6-63.5-12.1-79.9-22.1-69.3c-10.1,8.7,7,132.9,18.1,132.9C1470.2,1661.7,1472.2,1638.6,1468.2,1598.2z M1506.4,1599.2
		c7-55.8,3-83.8-9-71.2c-10.1,10.6-18.1,133.8-8,133.8C1495.3,1661.7,1503.4,1633.8,1506.4,1599.2z"/>
</g>
<rect x="-0.2" y="225.4" class="st4" width="500" height="74.6"/>
<g>
	<path class="st3" d="M219,136.4l-4.6,6.7c-2.3,3.2-3.9,4.7-6.9,4.7c-3,0-4.8-2.2-4.8-4.4c0-2.1,1-3.7,5-5.7
		c2.7-1.6,3.7-2.3,3.7-3.9c0-1.4-0.9-2.7-2.7-2.7c-1.7,0-2.9,1-2.9,2.8c0,1.1,0.8,2.1,2.4,3.6l11.1,10.1h-2l-10.1-9.2
		c-1.7-1.5-2.8-2.7-2.8-4.4c0-1.9,1.4-3.9,4.3-3.9c2.4,0,4.1,1.7,4.1,3.8c0,1.7-1,2.8-4.3,4.6c-3.8,2-4.4,3.2-4.4,4.8
		c0,1.8,1.7,3.3,3.4,3.3c2.2,0,3.6-0.7,6-4.2l4-5.9H219z"/>
</g>
</svg>
