<?xml version="1.0" encoding="utf-8"?>
<!-- Generator: Adobe Illustrator 25.2.2, SVG Export Plug-In . SVG Version: 6.00 Build 0)  -->
<svg version="1.1" id="Layer_1" xmlns="http://www.w3.org/2000/svg" xmlns:xlink="http://www.w3.org/1999/xlink" x="0px" y="0px"
	 viewBox="0 0 792 612" style="enable-background:new 0 0 792 612;" xml:space="preserve">
<style type="text/css">
	.st0{fill:#020203;}
	.st1{fill:#00837F;}
</style>
<g transform="translate(0.000000,69.000000) scale(0.100000,-0.100000)">
	<path class="st0" d="M3497.5-1484.1c-7.4-12.6-52.1-171.7-101.8-356c-52.1-184.3-99.3-353.5-106.7-373.7
		c-9.9-27.8,27.3-35.3,211-35.3c215.9,0,253.2,12.6,253.2,90.9c0,5-54.6,10.1-124.1,10.1c-67,0-124.1,10.1-124.1,20.2
		s39.7,156.5,86.9,325.7s86.9,313.1,86.9,320.7C3678.7-1458.9,3509.9-1463.9,3497.5-1484.1z"/>
	<path class="st0" d="M5629.7-1595.2c-62.1-106-34.8-116.1,69.5-30.3c104.3,83.3,111.7,108.6,32.3,108.6
		C5694.2-1516.9,5659.5-1544.7,5629.7-1595.2z"/>
	<path class="st0" d="M6222.9-1547.2c-7.4-17.7-49.6-166.6-96.8-328.2l-81.9-297.9h79.4c76.9,0,79.4,5,111.7,146.4
		c34.8,164.1,62.1,207,126.6,207c27.3,0,47.2-2.5,47.2-5c0-5-22.3-80.8-49.6-171.7c-27.3-90.9-49.6-166.6-49.6-169.2
		c0-5,32.3-7.6,74.5-7.6c64.5,0,74.5,12.6,99.3,108.6c14.9,58.1,37.2,141.4,52.1,184.3c39.7,126.2,7.4,166.6-119.1,156.5
		c-99.3-7.6-109.2-2.5-94.3,42.9c44.7,169.2,47.2,164.1-22.3,164.1C6262.7-1516.9,6227.9-1532.1,6222.9-1547.2z"/>
	<path class="st0" d="M5056.3-1668.4c-27.3-30.3-76.9-50.5-124.1-50.5c-146.4,0-273-186.8-215.9-315.6
		c22.3-50.5,19.9-63.1-19.9-75.7c-27.3-10.1-49.6-37.9-49.6-65.6c0-40.4,17.4-48,126.6-48c89.4,0,121.6-10.1,114.2-30.3
		c-7.4-22.7-52.1-30.3-126.6-27.8c-62.1,5-114.2-2.5-114.2-15.1c0-40.4,211-55.5,312.8-22.7c76.9,27.8,96.8,45.4,96.8,95.9
		c0,58.1-12.4,65.6-124.1,78.3c-67,7.6-96.8,17.7-67,17.7c183.7,12.6,337.6,194.4,280.5,328.2c-24.8,50.5-22.3,70.7,9.9,106
		c37.2,42.9,27.3,75.7-24.8,75.7C5113.4-1617.9,5081.1-1640.7,5056.3-1668.4z M5006.7-1903.3c-19.9-80.8-99.3-154-136.5-131.3
		c-39.7,25.2-12.4,159.1,42.2,219.7c34.8,40.4,47.2,42.9,74.5,12.6C5009.2-1825,5016.6-1860.3,5006.7-1903.3z"/>
	<path class="st0" d="M5823.3-1741.7c-81.9-50.5-158.9-189.4-158.9-285.3c0-75.7,94.3-171.7,171.3-171.7c67,0,201.1,68.2,201.1,101
		s-116.7,32.8-136.5,0c-7.4-12.6-32.3-25.2-52.1-25.2c-79.4,0-9.9,310.6,79.4,345.9c24.8,10.1,47.2,5,54.6-12.6
		c9.9-35.3,129.1-40.4,129.1-7.6c0,37.9-104.3,103.5-161.3,103.5C5922.6-1693.7,5865.5-1716.4,5823.3-1741.7z"/>
	<path class="st0" d="M3882.3-1759.3c-136.5-95.9-173.8-330.8-67-404c156.4-103.5,384.7,70.7,384.7,297.9c0,48-12.4,98.5-29.8,116.1
		C4128-1706.3,3949.3-1711.4,3882.3-1759.3z M4058.5-1878c-7.4-126.2-72-244.9-131.6-244.9c-57.1,0-62.1,42.9-24.8,174.2
		c27.3,98.5,96.8,184.3,134,171.7C4051-1782.1,4061-1830,4058.5-1878z"/>
	<path class="st0" d="M4286.8-1751.8c-5-17.7-27.3-101-49.6-186.8c-19.9-85.8-44.7-176.7-54.6-196.9c-12.4-32.8,0-40.4,67-32.8
		c76.9,7.6,84.4,15.1,124.1,169.2c44.7,161.6,91.8,222.2,134,179.3c14.9-15.1,7.4-80.8-17.4-176.7
		c-52.1-189.4-54.6-181.8,24.8-171.7c59.6,7.6,74.5,27.8,114.2,159.1c24.8,83.3,39.7,179.3,37.2,214.6
		c-7.4,60.6-14.9,63.1-188.6,68.2C4358.8-1724,4291.8-1734.1,4286.8-1751.8z"/>
	<path class="st0" d="M5195.3-1908.3c-27.3-103.5-59.6-204.5-67-224.7c-12.4-32.8,2.5-40.4,62.1-40.4c44.7,0,84.4,15.1,89.4,32.8
		c5,15.1,27.3,95.9,49.6,176.7c34.8,121.2,49.6,143.9,99.3,143.9c44.7,0,86.9,40.4,86.9,88.4c0,2.5-59.6,7.6-134,7.6h-131.6
		L5195.3-1908.3z"/>
	<path class="st0" d="M5550.3-1746.7c-17.4-27.8-109.2-371.2-109.2-409c0-12.6,29.8-17.7,67-12.6c62.1,7.6,74.5,25.2,121.6,196.9
		c32.3,103.5,57.1,204.5,57.1,222.2C5689.3-1711.4,5575.1-1708.8,5550.3-1746.7z"/>
	<path class="st0" d="M6389.3-2302.2c-350-126.2-1089.7-166.6-1593.6-88.4c-635.4,101-1181.5,138.9-1377.6,93.4
		c-42.2-10.1,119.1-25.2,372.3-35.3c389.7-12.6,508.8-27.8,930.8-118.7c637.9-136.3,990.4-156.5,1285.8-78.3
		c218.4,58.1,469.1,171.7,523.7,239.9C6570.5-2241.6,6558-2241.6,6389.3-2302.2z"/>
</g>
<g transform="translate(0.000000,491.000000) scale(0.100000,-0.100000)">
	<path class="st1" d="M1772.7,3669.3c-43.8-4.3-158.6-24.5-199.6-34.6c-106.1-25.5-247.2-81.4-332-130.3
		c-13.7-8-36.1-21.3-49.8-28.7c-67.3-38.3-172.8-122.3-247.8-197.9c-54.1-54.3-137.3-157.4-165.7-204.2
		c-7.7-13.3-21.3-35.1-29.5-48.4c-70-114.4-126.9-268.6-155.3-420.7c-15.9-88.3-23-255.3-13.1-339.3
		c33.9-302.6,163.5-568.6,382.3-782.9c217.1-212.2,512.5-348.9,807.8-372.8c293.2-24.5,566.1,37.2,816,184
		c210.6,123.9,393.3,320.2,501,539.3c91.3,185.6,129.6,352.1,129.6,561.1c-0.5,100-6.6,164.9-24.6,250.5
		c-42.1,197.9-129.1,380.3-254.3,534c-10.4,12.8-23,28.2-27.3,34c-29,36.2-132.9,134-186,175.5c-82.6,64.4-143.8,103.2-234.1,147.3
		c-143.3,70.2-304.1,116.5-464.4,132.4C1980,3672.4,1813.1,3673.5,1772.7,3669.3z M1707,3241.1c27.3-9.6,70.6-37.8,93-60.1
		c18-18.1,19.1-21.3,19.1-55.8c0-33-1.6-37.8-16.4-53.2c-31.7-31.9-80.4-33-118.1-2.1c-40.5,33-86.4,27.7-110.5-12.2
		c-15.3-26.1-8.8-42,47.6-114.9c64.5-83.5,76-109,76-168.6c0-37.8-2.2-51.1-13.7-75.5c-19.1-39.9-51.4-73.4-93-95.2
		c-30.1-15.4-40.5-18.1-84.8-19.7c-47-2.1-52.5-1.1-84.8,13.8c-19.1,8.5-50.3,25.5-70,37.8s-53.6,30.8-75.5,41
		c-45.9,22.3-62.9,21.8-97.9-3.2c-30.6-21.8-50.9-76.1-64.5-175.5c-15.9-109-8.2-218.6,20.8-312.7c17.5-58,30.6-76.6,62.4-89.4
		c35.6-14.9,55.8-10.1,119.8,27.7c32.8,19.1,63.4,37.8,67.8,42c4.4,3.7,25.2,13.3,46.5,21.3c32.3,12.2,43.8,14.4,77.1,12.2
		c73.8-4.8,138.9-47.3,172.8-113.3c15.3-28.2,17-37.2,17-79.8c0-62.2-7.1-78.7-70-159.6c-57.4-73.4-67.3-94.1-56.9-121.8
		c7.7-20.7,38.3-40.4,62.9-40.4c17.5,0,38.8,12.2,54.7,30.3c6,6.4,21.3,13.3,35,16c64,12.8,107.2-32.4,95.7-99.5
		c-3.3-17.6-9.8-26.6-37.7-50.5c-128-109-327.6-51.6-369.7,106.4c-23,84.6-4.9,141.5,77.1,242c36.6,45.2,48.7,64.4,48.7,76.6
		c0,13.8-20.8,35.1-33.9,35.1c-9.8,0-42.7-16-73.3-35.6c-128-81.4-205.1-94.1-305.7-51.1c-103.9,44.1-152.6,138.3-178.3,344.1
		c-17,135.1,15.3,344.7,66.2,432.4c43.2,73.9,124.2,119.1,216,120.2c57.4,1.1,106.7-16,179.4-61.7c15.3-10.1,40.5-25.5,55.8-35.1
		c30.1-18.6,47.6-18.6,64.5,0.5c14.8,17,10.9,32.4-16.4,68.1c-14.8,18.6-29,37.8-32.3,43.6c-3.3,5.3-10.9,15.4-17,21.8
		c-48.7,51.6-68.4,133-48.7,203.2c9.3,35.1,17.5,49.5,47,83.5c47,55.3,107.7,80.3,183.2,76.1
		C1668.2,3249.1,1696.6,3244.8,1707,3241.1z M2219.5,3243.8c96.8-23.4,165.7-111.2,165.7-211.7c0-58-17-95.7-75.5-172.3
		c-27.9-35.6-52-70.7-53.6-77.7c-3.8-15.4,11.5-38.3,29-43.1c14.2-3.7,22.4,0.5,95.7,45.7c94.1,58,150.4,75,214.9,64.4
		c57.4-9.6,102.8-33,144.9-73.9c32.3-31.4,38.8-41.5,56.3-86.2c37.7-96.3,53.1-183,53.1-301c0-109-18-211.2-53.1-302.6
		c-39.4-103.7-156.4-169.7-270.7-153.2c-43.8,5.9-70.6,17.6-163.5,72.3c-34.5,19.7-67.3,35.6-73.8,35.6c-13.1,0-35-22.3-35-35.6
		c0-9.6,12-27.7,46.5-70.7c68.4-85.6,88.1-132.4,83.1-201.1c-3.8-62.2-20.2-97.3-66.2-142.5c-50.9-48.9-87-63.3-159.2-62.8
		c-74.9,0-126.9,23.9-170.6,77.7c-24.6,29.3-27.9,51.1-12.6,81.4c13.7,27.7,28.4,38.8,56.3,43.6c31.2,4.8,54.1-2.1,82.6-25
		c29-23.4,47.6-26.6,73.8-13.8c24.6,12.8,35,32.4,32.3,62.2c-2.2,22.3-8.8,33.5-52,88.3c-58,74.5-64,84.6-72.7,127.1
		c-22.4,111.7,67.8,222.3,188.1,229.8c34.5,2.1,44.3,0.5,80.4-13.8c22.4-8.5,56.9-26.6,76-39.9c76-51.1,108.8-64.4,140-55.8
		c48.1,12.8,69.5,45.2,89.2,135.1c24.1,107.4,24.1,223.9,1.1,325c-24.6,105.8-45.4,134-101.7,138.8c-31.7,2.7-39.4-0.5-138.9-60.1
		c-68.4-40.4-88.6-46.8-144.4-44.1c-57.4,2.1-95.2,18.6-135.6,59c-39.9,38.8-56.9,81.4-56.3,136.7c0.5,49.5,14.8,84.6,54.1,133
		c59.6,73.9,73.8,96.3,73.8,117.5c0,28.7-15.3,51.6-39.4,58.5c-27.3,8.5-54.1,2.1-72.7-16.5c-32.3-33-81.5-33.5-118.1-1.6
		c-15.9,13.8-21.9,23.9-24.1,41c-4.4,28.2,3.8,45.2,37.2,79.3C2058.2,3244.3,2137.5,3264,2219.5,3243.8z M1948.2,3049.1
		c13.1-6.9,31.2-22.3,39.9-34c13.1-18.6,15.9-27.1,15.9-55.8c0.5-63.8-38.8-105.8-103.4-109.6c-30.6-2.1-37.2-0.5-58.5,12.2
		c-65.6,40.4-75.5,121.8-21.3,171.8C1854.2,3064,1906.7,3070.4,1948.2,3049.1z M2264.9,2389c0-2.7-83.7-86.2-186-186.2
		c-136.2-132.4-187.6-179.2-190.9-173.9c-2.7,3.7-85.3,85.6-183.8,181.9c-164.1,159.6-178.9,175.5-171.7,184
		c4.4,5.3,87.5,87.8,185.4,184l177.2,174.5l184.9-179.8C2181.8,2474.7,2264.9,2391.7,2264.9,2389z M1366.8,2482.1
		c35.6-22.9,52.5-50,54.7-88.3c1.6-37.8-10.9-63.3-44.3-89.9c-18-13.8-26.3-16.5-57.4-18.1c-42.7-1.6-68.4,9.6-95.7,43.1
		c-35.6,42.6-23,114.4,25.2,146.8c30.1,19.7,34.5,20.7,66.7,21.3C1337.3,2497.5,1348.2,2494.3,1366.8,2482.1z M2523.6,2489
		c42.7-20.7,64-54.3,64-98.4c0-34.6-12.6-62.8-35.6-80.8c-25.2-19.1-41.6-25-74.4-25c-84.8,0-137.3,82.4-98.4,154.2
		c14.2,26.6,21.9,33.5,52.5,47.9C2458.5,2499.7,2500.1,2500.2,2523.6,2489z M1946.6,1915.6c66.7-33,79.9-116.5,26.8-167
		c-55.8-53.2-138.4-40.4-174.5,27.7C1750.2,1867.2,1851.4,1962.5,1946.6,1915.6z"/>
	<path class="st1" d="M1736.6,2538.5l-154.2-150l155.3-151.1l155.3-151.1v301c0,165.9-0.5,301.6-1.1,301.6
		C1890.8,2689,1820.8,2621.5,1736.6,2538.5z"/>
</g>
</svg>
